<svg width="259" height="47" viewBox="0 0 259 47" fill="none" xmlns="http://www.w3.org/2000/svg">
<g filter="url(#filter0_d_101_8)">
<path d="M29.1875 32.1523L18.5312 33.5273L17.2422 28.6719H12.3438L11.2695 33.5273L0.3125 32.4531L8.86328 3.83594L20.8086 3.23438L29.1875 32.1523ZM16.4688 22.0977L14.8359 14.6211L13.2461 22.0977H16.4688ZM49.8125 3.27734L49.5977 12.3867L43.1953 12.6445L41.5625 33.0117L32.4961 33.4844L32.5391 13.1172L26.1367 13.4609L26.3945 3.32031L49.8125 3.27734Z" fill="#00D1FF"/>
<path d="M98.3887 4.17969L93.3613 33.0977L81.1582 33.3555L78.5371 18.7891L75.916 32.2383L63.7129 32.668L58.6426 5.03906L69.2988 4.09375L71.4473 21.0664L74.3262 5.38281H82.7051L86.0566 21.2812L87.7754 3.23438L98.3887 4.17969ZM122.924 16.6406C122.924 17.8867 122.838 19.1328 122.666 20.3789C120.217 20.5365 117.782 20.7943 115.361 21.1523C112.941 21.4961 110.52 21.8398 108.1 22.1836C108.472 23.2148 109.052 24.0384 109.84 24.6543C110.642 25.2702 111.594 25.5781 112.697 25.5781C113.27 25.5781 113.893 25.4707 114.566 25.2559C115.254 25.041 115.934 24.776 116.607 24.4609C117.281 24.1315 117.925 23.7806 118.541 23.4082C119.157 23.0358 119.687 22.6992 120.131 22.3984L119.1 32.1523C118.541 32.582 117.932 32.9473 117.273 33.248C116.629 33.5488 115.956 33.7923 115.254 33.9785C114.552 34.1647 113.843 34.3008 113.127 34.3867C112.411 34.4727 111.709 34.5156 111.021 34.5156C109.604 34.5156 108.307 34.3223 107.133 33.9355C105.958 33.5488 104.891 33.0117 103.932 32.3242C102.986 31.6224 102.156 30.7988 101.439 29.8535C100.723 28.9082 100.129 27.877 99.6562 26.7598C99.1836 25.6426 98.8255 24.4609 98.582 23.2148C98.3385 21.9688 98.2168 20.7083 98.2168 19.4336C98.2168 18.1016 98.3385 16.7695 98.582 15.4375C98.8255 14.1055 99.1908 12.8236 99.6777 11.5918C100.179 10.36 100.802 9.22135 101.547 8.17578C102.306 7.11589 103.187 6.19206 104.189 5.4043C105.192 4.61654 106.324 4.00065 107.584 3.55664C108.859 3.11263 110.262 2.89062 111.795 2.89062C113.07 2.89062 114.23 3.06966 115.275 3.42773C116.335 3.77148 117.273 4.25846 118.09 4.88867C118.921 5.50456 119.637 6.24219 120.238 7.10156C120.854 7.96094 121.355 8.90625 121.742 9.9375C122.143 10.9544 122.437 12.0358 122.623 13.1816C122.824 14.3132 122.924 15.4661 122.924 16.6406ZM114.33 15.5234C114.33 15.1224 114.287 14.7142 114.201 14.2988C114.115 13.8691 113.972 13.4824 113.771 13.1387C113.585 12.7949 113.335 12.5156 113.02 12.3008C112.704 12.0716 112.311 11.957 111.838 11.957C111.265 11.957 110.757 12.1146 110.312 12.4297C109.883 12.7305 109.51 13.1172 109.195 13.5898C108.88 14.0482 108.622 14.5495 108.422 15.0938C108.221 15.638 108.071 16.1393 107.971 16.5977L114.33 15.9961V15.5234ZM150.23 32.1523L139.574 33.5273L138.285 28.6719H133.387L132.312 33.5273L121.355 32.4531L129.906 3.83594L141.852 3.23438L150.23 32.1523ZM137.512 22.0977L135.879 14.6211L134.289 22.0977H137.512ZM170.77 3.70703L170.555 12.8164L164.152 13.0742L163.379 33.0117L154.312 33.4844L153.496 13.5469L147.094 13.8906L147.352 3.75L170.77 3.70703ZM197.496 33.1406L186.754 33.6562L186.668 24.5898H181.727L181.426 34H171.801L172.617 3.79297L182.844 4.26562L182.199 19.6914H186.969L187.012 3.53516L196.809 3.79297L197.496 33.1406ZM223.514 16.6406C223.514 17.8867 223.428 19.1328 223.256 20.3789C220.807 20.5365 218.372 20.7943 215.951 21.1523C213.531 21.4961 211.11 21.8398 208.689 22.1836C209.062 23.2148 209.642 24.0384 210.43 24.6543C211.232 25.2702 212.184 25.5781 213.287 25.5781C213.86 25.5781 214.483 25.4707 215.156 25.2559C215.844 25.041 216.524 24.776 217.197 24.4609C217.87 24.1315 218.515 23.7806 219.131 23.4082C219.747 23.0358 220.277 22.6992 220.721 22.3984L219.689 32.1523C219.131 32.582 218.522 32.9473 217.863 33.248C217.219 33.5488 216.546 33.7923 215.844 33.9785C215.142 34.1647 214.433 34.3008 213.717 34.3867C213.001 34.4727 212.299 34.5156 211.611 34.5156C210.193 34.5156 208.897 34.3223 207.723 33.9355C206.548 33.5488 205.481 33.0117 204.521 32.3242C203.576 31.6224 202.745 30.7988 202.029 29.8535C201.313 28.9082 200.719 27.877 200.246 26.7598C199.773 25.6426 199.415 24.4609 199.172 23.2148C198.928 21.9688 198.807 20.7083 198.807 19.4336C198.807 18.1016 198.928 16.7695 199.172 15.4375C199.415 14.1055 199.781 12.8236 200.268 11.5918C200.769 10.36 201.392 9.22135 202.137 8.17578C202.896 7.11589 203.777 6.19206 204.779 5.4043C205.782 4.61654 206.913 4.00065 208.174 3.55664C209.449 3.11263 210.852 2.89062 212.385 2.89062C213.66 2.89062 214.82 3.06966 215.865 3.42773C216.925 3.77148 217.863 4.25846 218.68 4.88867C219.51 5.50456 220.227 6.24219 220.828 7.10156C221.444 7.96094 221.945 8.90625 222.332 9.9375C222.733 10.9544 223.027 12.0358 223.213 13.1816C223.413 14.3132 223.514 15.4661 223.514 16.6406ZM214.92 15.5234C214.92 15.1224 214.877 14.7142 214.791 14.2988C214.705 13.8691 214.562 13.4824 214.361 13.1387C214.175 12.7949 213.924 12.5156 213.609 12.3008C213.294 12.0716 212.9 11.957 212.428 11.957C211.855 11.957 211.346 12.1146 210.902 12.4297C210.473 12.7305 210.1 13.1172 209.785 13.5898C209.47 14.0482 209.212 14.5495 209.012 15.0938C208.811 15.638 208.661 16.1393 208.561 16.5977L214.92 15.9961V15.5234ZM250.111 13.2891C250.111 14.4062 250.011 15.4232 249.811 16.3398C249.624 17.2422 249.324 18.0729 248.908 18.832C248.493 19.5911 247.956 20.293 247.297 20.9375C246.638 21.582 245.843 22.1979 244.912 22.7852L250.025 31.8945L240.357 33.7852L237.049 24.6328L234.385 24.7188L233.998 33.6562H224.76C224.831 30.3906 224.896 27.1393 224.953 23.9023C225.025 20.6654 225.104 17.4141 225.189 14.1484C225.218 12.5013 225.247 10.8685 225.275 9.25C225.304 7.63151 225.361 5.9987 225.447 4.35156C226.45 3.97917 227.438 3.67122 228.412 3.42773C229.386 3.18424 230.36 2.99805 231.334 2.86914C232.322 2.72591 233.318 2.63281 234.32 2.58984C235.337 2.53255 236.376 2.50391 237.436 2.50391C239.068 2.50391 240.644 2.73307 242.162 3.19141C243.695 3.63542 245.048 4.30859 246.223 5.21094C247.397 6.11328 248.335 7.23763 249.037 8.58398C249.753 9.93034 250.111 11.4987 250.111 13.2891ZM240.486 13.9766C240.486 13.375 240.4 12.8236 240.229 12.3223C240.071 11.821 239.827 11.3913 239.498 11.0332C239.183 10.6608 238.782 10.3743 238.295 10.1738C237.822 9.95898 237.264 9.85156 236.619 9.85156C236.333 9.85156 236.053 9.87305 235.781 9.91602C235.509 9.94466 235.244 9.99479 234.986 10.0664L234.643 18.0586H235.158C235.774 18.0586 236.397 17.9798 237.027 17.8223C237.672 17.6647 238.245 17.4212 238.746 17.0918C239.262 16.7624 239.677 16.3398 239.992 15.8242C240.322 15.3086 240.486 14.6927 240.486 13.9766Z" fill="white"/>
</g>
<defs>
<filter id="filter0_d_101_8" x="0.3125" y="0.503906" width="253.799" height="36.0117" filterUnits="userSpaceOnUse" color-interpolation-filters="sRGB">
<feFlood flood-opacity="0" result="BackgroundImageFix"/>
<feColorMatrix in="SourceAlpha" type="matrix" values="0 0 0 0 0 0 0 0 0 0 0 0 0 0 0 0 0 0 127 0" result="hardAlpha"/>
<feOffset dx="2"/>
<feGaussianBlur stdDeviation="1"/>
<feComposite in2="hardAlpha" operator="out"/>
<feColorMatrix type="matrix" values="0 0 0 0 0 0 0 0 0 0 0 0 0 0 0 0 0 0 0.5 0"/>
<feBlend mode="normal" in2="BackgroundImageFix" result="effect1_dropShadow_101_8"/>
<feBlend mode="normal" in="SourceGraphic" in2="effect1_dropShadow_101_8" result="shape"/>
</filter>
</defs>
</svg>
